<svg width="150" height="44" viewBox="0 0 150 44" fill="none" xmlns="http://www.w3.org/2000/svg">
<path d="M148.699 38.5728C148.699 40.8597 146.808 42.7122 144.469 42.7122H6.03643C3.69849 42.7122 1.80078 40.8597 1.80078 38.5728V5.5623C1.80078 3.27643 3.69849 1.41748 6.03643 1.41748H144.468C146.808 1.41748 148.698 3.27643 148.698 5.5623L148.699 38.5728Z" fill="black"/>
<path d="M144.023 1.46747C146.57 1.46747 148.643 3.48846 148.643 5.97211V38.1577C148.643 40.6414 146.57 42.6623 144.023 42.6623H6.4774C3.93006 42.6623 1.85725 40.6414 1.85725 38.1577V5.97211C1.85725 3.48846 3.93006 1.46747 6.4774 1.46747H144.023ZM144.023 0.607848H6.4774C3.45278 0.607848 0.975586 3.02311 0.975586 5.97211V38.1577C0.975586 41.1067 3.45278 43.522 6.4774 43.522H144.023C147.047 43.522 149.524 41.1067 149.524 38.1577V5.97211C149.524 3.02311 147.047 0.607848 144.023 0.607848Z" fill="#A6A6A6"/>
<path d="M34.1277 21.8332C34.0958 18.3754 37.0316 16.6932 37.1658 16.6149C35.5032 14.2514 32.9261 13.9284 32.0205 13.9027C29.8561 13.6806 27.7566 15.1654 26.6541 15.1654C25.5295 15.1654 23.8317 13.9242 22.0018 13.9606C19.647 13.996 17.4441 15.3253 16.2359 17.3895C13.7424 21.5983 15.602 27.7833 17.9909 31.1853C19.1859 32.8514 20.5823 34.7118 22.41 34.6463C24.1981 34.5744 24.866 33.5348 27.0238 33.5348C29.1618 33.5348 29.789 34.6463 31.653 34.6045C33.5721 34.5744 34.7803 32.9308 35.9334 31.2497C37.3144 29.34 37.869 27.4593 37.891 27.3627C37.8459 27.3477 34.1641 25.9777 34.1277 21.8332Z" fill="white"/>
<path d="M30.6066 11.6647C31.5683 10.4921 32.2263 8.89677 32.0437 7.27783C30.6517 7.33791 28.9109 8.21658 27.9085 9.36346C27.0216 10.3741 26.2293 12.0306 26.434 13.5884C27.9976 13.7021 29.6031 12.8191 30.6066 11.6647Z" fill="white"/>
<path d="M60.0042 34.4069H57.5052L56.1364 30.2131H51.3784L50.0745 34.4069H47.6416L52.3556 20.1294H55.2671L60.0042 34.4069ZM55.7238 28.4537L54.4859 24.7255C54.3549 24.3446 54.1095 23.4477 53.7475 22.0359H53.7035C53.5593 22.6431 53.3272 23.54 53.0081 24.7255L51.7922 28.4537H55.7238V28.4537Z" fill="white"/>
<path d="M72.1265 29.1332C72.1265 30.8841 71.6412 32.2681 70.6707 33.2841C69.8014 34.1885 68.7219 34.6401 67.4334 34.6401C66.0425 34.6401 65.0434 34.1531 64.4349 33.1789H64.3909V38.6022H62.0449V27.5014C62.0449 26.4006 62.0152 25.2709 61.958 24.1122H64.0212L64.1521 25.744H64.1961C64.9785 24.5146 66.1658 23.9009 67.7591 23.9009C69.0047 23.9009 70.0446 24.3804 70.8764 25.3406C71.7105 26.3019 72.1265 27.5657 72.1265 29.1332ZM69.7365 29.2169C69.7365 28.2148 69.5054 27.3887 69.041 26.7386C68.5338 26.0605 67.8526 25.7215 66.9988 25.7215C66.42 25.7215 65.894 25.9103 65.4241 26.2826C64.9532 26.6581 64.6451 27.1484 64.5009 27.7556C64.4283 28.0389 64.392 28.2706 64.392 28.453V30.1696C64.392 30.9184 64.6275 31.5503 65.0984 32.0664C65.5694 32.5824 66.1812 32.8399 66.9338 32.8399C67.8174 32.8399 68.5052 32.5073 68.997 31.8443C69.49 31.1802 69.7365 30.3047 69.7365 29.2169Z" fill="white"/>
<path d="M84.2718 29.1332C84.2718 30.8841 83.7866 32.2681 82.815 33.2841C81.9468 34.1885 80.8673 34.6401 79.5788 34.6401C78.1879 34.6401 77.1888 34.1531 76.5814 33.1789H76.5374V38.6022H74.1914V27.5014C74.1914 26.4006 74.1617 25.2709 74.1045 24.1122H76.1677L76.2986 25.744H76.3426C77.1239 24.5146 78.3112 23.9009 79.9056 23.9009C81.1501 23.9009 82.19 24.3804 83.024 25.3406C83.8548 26.3019 84.2718 27.5657 84.2718 29.1332ZM81.8819 29.2169C81.8819 28.2148 81.6497 27.3887 81.1853 26.7386C80.6781 26.0605 79.9991 25.7215 79.1442 25.7215C78.5643 25.7215 78.0394 25.9103 77.5684 26.2826C77.0975 26.6581 76.7905 27.1484 76.6463 27.7556C76.5748 28.0389 76.5374 28.2706 76.5374 28.453V30.1696C76.5374 30.9184 76.7729 31.5503 77.2416 32.0664C77.7126 32.5813 78.3244 32.8399 79.0792 32.8399C79.9628 32.8399 80.6506 32.5073 81.1424 31.8443C81.6354 31.1802 81.8819 30.3047 81.8819 29.2169Z" fill="white"/>
<path d="M97.8502 30.4033C97.8502 31.6177 97.4178 32.6058 96.5496 33.3686C95.5956 34.2022 94.2674 34.6185 92.5608 34.6185C90.9851 34.6185 89.7218 34.3224 88.7656 33.7291L89.3092 31.8226C90.3391 32.4299 91.4692 32.7346 92.7005 32.7346C93.5841 32.7346 94.2718 32.5393 94.7659 32.1509C95.2578 31.7626 95.5031 31.2412 95.5031 30.591C95.5031 30.0117 95.3007 29.5235 94.8946 29.1276C94.4908 28.7318 93.8163 28.3638 92.8744 28.0237C90.3105 27.0914 89.0297 25.7256 89.0297 23.9297C89.0297 22.756 89.4787 21.7936 90.3777 21.0448C91.2734 20.2948 92.4683 19.9204 93.9626 19.9204C95.2952 19.9204 96.4021 20.1468 97.2857 20.5985L96.6992 22.4631C95.874 22.0253 94.9409 21.8065 93.8966 21.8065C93.0713 21.8065 92.4265 22.005 91.9644 22.3998C91.5738 22.7527 91.3779 23.183 91.3779 23.6926C91.3779 24.2569 91.6013 24.7236 92.0502 25.0905C92.4408 25.4295 93.1506 25.7964 94.1805 26.1923C95.4404 26.6869 96.3658 27.2652 96.9611 27.9282C97.5542 28.5891 97.8502 29.4162 97.8502 30.4033Z" fill="white"/>
<path d="M105.606 25.8286H103.02V30.8271C103.02 32.0984 103.476 32.7335 104.389 32.7335C104.809 32.7335 105.156 32.6981 105.431 32.6273L105.496 34.3643C105.034 34.5327 104.426 34.6174 103.672 34.6174C102.745 34.6174 102.021 34.3417 101.499 33.7913C100.978 33.2399 100.716 32.3151 100.716 31.0159V25.8265H99.1758V24.1099H100.716V22.2249L103.02 21.5469V24.1099H105.606V25.8286Z" fill="white"/>
<path d="M117.274 29.1749C117.274 30.7574 116.81 32.0566 115.883 33.0726C114.911 34.1186 113.622 34.64 112.014 34.64C110.465 34.64 109.231 34.139 108.311 33.137C107.392 32.1349 106.932 30.87 106.932 29.3455C106.932 27.7502 107.405 26.4434 108.354 25.4275C109.302 24.4104 110.58 23.9019 112.188 23.9019C113.737 23.9019 114.984 24.4029 115.925 25.406C116.825 26.3791 117.274 27.6354 117.274 29.1749ZM114.84 29.249C114.84 28.2995 114.632 27.4852 114.211 26.8061C113.719 25.9843 113.016 25.5744 112.104 25.5744C111.161 25.5744 110.445 25.9853 109.953 26.8061C109.532 27.4863 109.324 28.3134 109.324 29.2919C109.324 30.2413 109.532 31.0556 109.953 31.7337C110.461 32.5555 111.169 32.9653 112.084 32.9653C112.979 32.9653 113.682 32.5469 114.19 31.7122C114.622 31.0202 114.84 30.1974 114.84 29.249Z" fill="white"/>
<path d="M124.899 26.1238C124.667 26.082 124.42 26.0605 124.16 26.0605C123.335 26.0605 122.696 26.3641 122.247 26.9725C121.857 27.5089 121.661 28.1869 121.661 29.0055V34.4073H119.316L119.338 27.3544C119.338 26.1678 119.308 25.0875 119.25 24.1133H121.293L121.379 26.0831H121.444C121.692 25.4061 122.082 24.8611 122.617 24.4523C123.14 24.0843 123.704 23.9009 124.313 23.9009C124.53 23.9009 124.725 23.9159 124.899 23.9427V26.1238Z" fill="white"/>
<path d="M135.391 28.7725C135.391 29.1823 135.363 29.5278 135.305 29.8099H128.267C128.294 30.827 128.634 31.6048 129.288 32.1412C129.881 32.6208 130.648 32.8611 131.59 32.8611C132.632 32.8611 133.583 32.6991 134.438 32.3741L134.805 33.9619C133.806 34.3867 132.627 34.5981 131.265 34.5981C129.628 34.5981 128.343 34.1282 127.408 33.1894C126.474 32.2507 126.007 30.9901 126.007 29.4087C126.007 27.8563 126.441 26.5635 127.312 25.5325C128.223 24.4317 129.454 23.8813 131.004 23.8813C132.525 23.8813 133.677 24.4317 134.46 25.5325C135.079 26.4068 135.391 27.4883 135.391 28.7725ZM133.154 28.1792C133.169 27.5012 133.016 26.9154 132.698 26.4208C132.292 25.7846 131.668 25.467 130.829 25.467C130.062 25.467 129.438 25.7771 128.961 26.3993C128.571 26.8939 128.339 27.4872 128.267 28.1781H133.154V28.1792Z" fill="white"/>
<path d="M54.9485 11.3461C54.9485 12.6088 54.5601 13.5594 53.7843 14.1977C53.0658 14.7867 52.0447 15.0817 50.722 15.0817C50.0662 15.0817 49.505 15.0539 49.0352 14.9981V8.09854C49.6481 8.00199 50.3083 7.95264 51.0213 7.95264C52.2812 7.95264 53.2308 8.21978 53.8713 8.75406C54.5887 9.35807 54.9485 10.2217 54.9485 11.3461ZM53.7326 11.3772C53.7326 10.5586 53.5103 9.93098 53.0658 9.49325C52.6212 9.0566 51.972 8.83774 51.117 8.83774C50.7539 8.83774 50.4447 8.86134 50.1883 8.91069V14.1559C50.3303 14.1773 50.59 14.187 50.9674 14.187C51.8499 14.187 52.531 13.9477 53.0108 13.4692C53.4905 12.9908 53.7326 12.2934 53.7326 11.3772Z" fill="white"/>
<path d="M61.3958 12.4492C61.3958 13.2271 61.168 13.8643 60.7125 14.3643C60.2349 14.8782 59.6022 15.1346 58.8122 15.1346C58.0507 15.1346 57.4444 14.8889 56.9922 14.3954C56.541 13.903 56.3154 13.2818 56.3154 12.5329C56.3154 11.7497 56.5476 11.1071 57.0142 10.6082C57.4807 10.1093 58.1079 9.85938 58.898 9.85938C59.6594 9.85938 60.2712 10.1051 60.7345 10.5975C61.1746 11.076 61.3958 11.694 61.3958 12.4492ZM60.1997 12.4857C60.1997 12.019 60.0963 11.6189 59.8905 11.2852C59.6484 10.8818 59.304 10.6801 58.8562 10.6801C58.3929 10.6801 58.0408 10.8818 57.7987 11.2852C57.5919 11.6189 57.4895 12.0255 57.4895 12.5061C57.4895 12.9728 57.593 13.373 57.7987 13.7066C58.0485 14.11 58.3962 14.3117 58.8452 14.3117C59.2853 14.3117 59.6308 14.1068 59.8795 13.6959C60.093 13.3558 60.1997 12.9524 60.1997 12.4857Z" fill="white"/>
<path d="M70.0399 9.9624L68.4168 15.0198H67.3605L66.6882 12.8237C66.5176 12.2755 66.379 11.7305 66.2711 11.1897H66.2502C66.1501 11.7455 66.0115 12.2894 65.8332 12.8237L65.1191 15.0198H64.0506L62.5244 9.9624H63.7095L64.296 12.3667C64.4379 12.9353 64.5546 13.4771 64.6481 13.9899H64.669C64.7548 13.5672 64.8968 13.0286 65.0971 12.3774L65.8332 9.96348H66.7729L67.4782 12.3259C67.6488 12.902 67.7874 13.4567 67.8942 13.991H67.9261C68.0042 13.4706 68.122 12.916 68.2782 12.3259L68.9076 9.96348H70.0399V9.9624Z" fill="white"/>
<path d="M76.0184 15.0196H74.8652V12.1229C74.8652 11.2303 74.5175 10.784 73.8198 10.784C73.4776 10.784 73.2014 10.9063 72.9869 11.152C72.7745 11.3976 72.6667 11.6873 72.6667 12.0188V15.0185H71.5135V11.4073C71.5135 10.9631 71.4992 10.4814 71.4717 9.96002H72.4851L72.539 10.7507H72.5709C72.7052 10.505 72.9054 10.3023 73.1684 10.1403C73.4809 9.95144 73.8308 9.85596 74.2138 9.85596C74.6979 9.85596 75.1007 10.0083 75.4209 10.3141C75.8192 10.6885 76.0184 11.2474 76.0184 11.9899V15.0196V15.0196Z" fill="white"/>
<path d="M79.198 15.0196H78.0459V7.6416H79.198V15.0196Z" fill="white"/>
<path d="M85.9876 12.4492C85.9876 13.2271 85.7598 13.8643 85.3043 14.3643C84.8267 14.8782 84.1929 15.1346 83.404 15.1346C82.6414 15.1346 82.0351 14.8889 81.5839 14.3954C81.1328 13.903 80.9072 13.2818 80.9072 12.5329C80.9072 11.7497 81.1394 11.1071 81.606 10.6082C82.0725 10.1093 82.6997 9.85938 83.4887 9.85938C84.2512 9.85938 84.8619 10.1051 85.3263 10.5975C85.7664 11.076 85.9876 11.694 85.9876 12.4492ZM84.7904 12.4857C84.7904 12.019 84.687 11.6189 84.4812 11.2852C84.2402 10.8818 83.8947 10.6801 83.448 10.6801C82.9836 10.6801 82.6315 10.8818 82.3905 11.2852C82.1836 11.6189 82.0813 12.0255 82.0813 12.5061C82.0813 12.9728 82.1847 13.373 82.3905 13.7066C82.6403 14.11 82.988 14.3117 83.437 14.3117C83.8771 14.3117 84.2215 14.1068 84.4702 13.6959C84.6848 13.3558 84.7904 12.9524 84.7904 12.4857Z" fill="white"/>
<path d="M91.5689 15.0198H90.5335L90.4477 14.4372H90.4158C90.0614 14.9018 89.5564 15.1346 88.9006 15.1346C88.4109 15.1346 88.0148 14.9812 87.7166 14.6765C87.4459 14.3997 87.3105 14.0553 87.3105 13.6465C87.3105 13.0286 87.5746 12.5576 88.1061 12.2315C88.6365 11.9053 89.3825 11.7454 90.3431 11.753V11.6585C90.3431 10.9923 89.9844 10.6597 89.2659 10.6597C88.7542 10.6597 88.3031 10.7852 87.9135 11.0341L87.6792 10.296C88.1611 10.0053 88.7564 9.85938 89.4585 9.85938C90.8141 9.85938 91.4941 10.5567 91.4941 11.9514V13.8139C91.4941 14.3192 91.5194 14.7215 91.5689 15.0198ZM90.3717 13.2818V12.5018C89.0997 12.4804 88.4637 12.8204 88.4637 13.521C88.4637 13.7849 88.5363 13.9823 88.6849 14.1143C88.8334 14.2463 89.0227 14.3117 89.2483 14.3117C89.5014 14.3117 89.7379 14.2334 89.9536 14.0778C90.1704 13.9212 90.3035 13.7227 90.353 13.4792C90.3651 13.4245 90.3717 13.3579 90.3717 13.2818Z" fill="white"/>
<path d="M98.1215 15.0196H97.0982L97.0443 14.2075H97.0124C96.6856 14.8254 96.1288 15.1344 95.3464 15.1344C94.7214 15.1344 94.201 14.8952 93.7883 14.4167C93.3757 13.9382 93.1699 13.317 93.1699 12.5542C93.1699 11.7356 93.3933 11.0726 93.8422 10.5662C94.2769 10.0941 94.8095 9.85812 95.4433 9.85812C96.1398 9.85812 96.6273 10.0866 96.9045 10.5447H96.9265V7.6416H98.0808V13.6571C98.0808 14.1495 98.094 14.6033 98.1215 15.0196ZM96.9265 12.8868V12.0435C96.9265 11.8976 96.9155 11.7796 96.8946 11.6895C96.8297 11.4191 96.69 11.1917 96.4776 11.0082C96.263 10.8248 96.0044 10.7325 95.7062 10.7325C95.276 10.7325 94.9393 10.8988 94.6917 11.2324C94.4463 11.5661 94.322 11.992 94.322 12.5124C94.322 13.0123 94.4397 13.4178 94.6763 13.73C94.9261 14.0626 95.2628 14.2289 95.6842 14.2289C96.0628 14.2289 96.3654 14.0905 96.5953 13.8127C96.8176 13.5562 96.9265 13.2473 96.9265 12.8868Z" fill="white"/>
<path d="M107.984 12.4492C107.984 13.2271 107.756 13.8643 107.3 14.3643C106.823 14.8782 106.191 15.1346 105.4 15.1346C104.64 15.1346 104.033 14.8889 103.58 14.3954C103.129 13.903 102.903 13.2818 102.903 12.5329C102.903 11.7497 103.135 11.1071 103.602 10.6082C104.069 10.1093 104.696 9.85938 105.487 9.85938C106.247 9.85938 106.86 10.1051 107.322 10.5975C107.763 11.076 107.984 11.694 107.984 12.4492ZM106.789 12.4857C106.789 12.019 106.685 11.6189 106.479 11.2852C106.236 10.8818 105.893 10.6801 105.444 10.6801C104.982 10.6801 104.63 10.8818 104.387 11.2852C104.18 11.6189 104.077 12.0255 104.077 12.5061C104.077 12.9728 104.181 13.373 104.387 13.7066C104.636 14.11 104.984 14.3117 105.433 14.3117C105.873 14.3117 106.22 14.1068 106.468 13.6959C106.681 13.3558 106.789 12.9524 106.789 12.4857Z" fill="white"/>
<path d="M114.184 15.0196H113.032V12.1229C113.032 11.2303 112.684 10.784 111.986 10.784C111.644 10.784 111.367 10.9063 111.154 11.152C110.94 11.3976 110.834 11.6873 110.834 12.0188V15.0185H109.679V11.4073C109.679 10.9631 109.666 10.4814 109.639 9.96002H110.651L110.705 10.7507H110.737C110.872 10.505 111.072 10.3023 111.334 10.1403C111.648 9.95144 111.997 9.85596 112.381 9.85596C112.864 9.85596 113.267 10.0083 113.587 10.3141C113.986 10.6885 114.184 11.2474 114.184 11.9899V15.0196V15.0196Z" fill="white"/>
<path d="M121.945 10.8044H120.675V13.2612C120.675 13.8856 120.901 14.1978 121.348 14.1978C121.555 14.1978 121.726 14.1806 121.862 14.1452L121.891 14.9981C121.664 15.0818 121.364 15.1237 120.996 15.1237C120.54 15.1237 120.186 14.9885 119.929 14.7181C119.672 14.4478 119.544 13.9929 119.544 13.3545V10.8044H118.786V9.96217H119.544V9.03522L120.674 8.70264V9.96109H121.944V10.8044H121.945Z" fill="white"/>
<path d="M128.05 15.0196H126.896V12.1444C126.896 11.2378 126.548 10.784 125.851 10.784C125.317 10.784 124.951 11.0468 124.751 11.5725C124.717 11.683 124.697 11.8182 124.697 11.977V15.0185H123.545V7.6416H124.697V10.6896H124.719C125.082 10.1349 125.603 9.85812 126.277 9.85812C126.755 9.85812 127.15 10.0105 127.463 10.3162C127.854 10.6971 128.05 11.2636 128.05 12.0124V15.0196V15.0196Z" fill="white"/>
<path d="M134.347 12.2517C134.347 12.4534 134.332 12.6229 134.304 12.7613H130.846C130.861 13.2613 131.026 13.6421 131.346 13.9061C131.639 14.1421 132.016 14.2601 132.479 14.2601C132.99 14.2601 133.457 14.1807 133.877 14.0209L134.058 14.8019C133.566 15.01 132.987 15.1141 132.317 15.1141C131.514 15.1141 130.881 14.8834 130.423 14.4221C129.963 13.9608 129.735 13.3417 129.735 12.565C129.735 11.8022 129.948 11.1671 130.376 10.6607C130.823 10.12 131.427 9.84961 132.189 9.84961C132.935 9.84961 133.502 10.12 133.885 10.6607C134.194 11.0898 134.347 11.6209 134.347 12.2517ZM133.247 11.961C133.255 11.6273 133.179 11.3398 133.023 11.0973C132.823 10.7851 132.518 10.6285 132.106 10.6285C131.729 10.6285 131.422 10.7808 131.188 11.0866C130.996 11.3301 130.883 11.6209 130.846 11.961H133.247Z" fill="white"/>
</svg>
