<svg width="43" height="30" viewBox="0 0 43 30" fill="none" xmlns="http://www.w3.org/2000/svg">
<path d="M40.1577 0H2.56325C1.15004 0 0 1.15004 0 2.56325V26.487C0 27.9002 1.15004 29.0502 2.56325 29.0502H40.1577C41.5709 29.0502 42.7209 27.9002 42.7209 26.487V2.56325C42.7209 1.15004 41.5709 0 40.1577 0ZM41.0121 26.487C41.0121 26.9569 40.6276 27.3414 40.1577 27.3414H2.56325C2.09166 27.3414 1.70884 26.9569 1.70884 26.487V2.56325C1.70884 2.09157 2.09166 1.70884 2.56325 1.70884H40.1577C40.6276 1.70884 41.0121 2.09157 41.0121 2.56325V26.487Z" fill="#E3E3E3"/>
<path d="M37.3265 6.9209H26.8105C26.2583 6.9209 25.8105 7.36861 25.8105 7.9209V12.6128C25.8105 13.1651 26.2583 13.6128 26.8105 13.6128H37.3265C37.8788 13.6128 38.3265 13.1651 38.3265 12.6128V7.9209C38.3265 7.36861 37.8788 6.9209 37.3265 6.9209Z" fill="#E3E3E3"/>
<path d="M15.4529 19.0034H5.44141C5.30334 19.0034 5.19141 19.1153 5.19141 19.2534V22.5207C5.19141 22.6588 5.30333 22.7707 5.44141 22.7707H15.4529C15.5909 22.7707 15.7029 22.6588 15.7029 22.5207V19.2534C15.7029 19.1153 15.5909 19.0034 15.4529 19.0034Z" fill="#0DCAF0" fill-opacity="0.15"/>
<path d="M26.7634 19.0034H16.752C16.6139 19.0034 16.502 19.1153 16.502 19.2534V22.5207C16.502 22.6588 16.6139 22.7707 16.752 22.7707H26.7634C26.9015 22.7707 27.0134 22.6588 27.0134 22.5207V19.2534C27.0134 19.1153 26.9015 19.0034 26.7634 19.0034Z" fill="#0DCAF0" fill-opacity="0.15"/>
<path d="M38.0759 19.0034H28.0645C27.9264 19.0034 27.8145 19.1153 27.8145 19.2534V22.5207C27.8145 22.6588 27.9264 22.7707 28.0645 22.7707H38.0759C38.214 22.7707 38.3259 22.6588 38.3259 22.5207V19.2534C38.3259 19.1153 38.214 19.0034 38.0759 19.0034Z" fill="#0DCAF0" fill-opacity="0.15"/>
</svg>
