<svg width="43" height="29" viewBox="0 0 43 29" fill="none" xmlns="http://www.w3.org/2000/svg">
<path d="M39.9562 0.050293H2.76433C1.36625 0.050293 0.228516 1.18802 0.228516 2.5861V26.2537C0.228516 27.6518 1.36625 28.7895 2.76433 28.7895H39.9562C41.3543 28.7895 42.492 27.6518 42.492 26.2537V2.5861C42.492 1.18802 41.3543 0.050293 39.9562 0.050293ZM40.8015 26.2537C40.8015 26.7186 40.4211 27.0989 39.9562 27.0989H2.76433C2.29778 27.0989 1.91906 26.7186 1.91906 26.2537V2.5861C1.91906 2.11947 2.29778 1.74083 2.76433 1.74083H39.9562C40.4211 1.74083 40.8015 2.11947 40.8015 2.5861V26.2537Z" fill="#E3E3E3"/>
<path d="M41.6468 6.8125H1.07379C0.607236 6.8125 0.228516 7.19114 0.228516 7.65777V11.0389C0.228516 11.5055 0.607236 11.8841 1.07379 11.8841H41.6468C42.1133 11.8841 42.492 11.5055 42.492 11.0389V7.65777C42.492 7.19114 42.1133 6.8125 41.6468 6.8125ZM40.8015 10.1936H1.91906V8.50304H40.8015V10.1936V10.1936Z" fill="#E3E3E3"/>
<path d="M30.4488 16.9561H8.2249C7.54342 16.9561 6.99023 17.5092 6.99023 18.1907C6.99023 18.8722 7.54342 19.4254 8.2249 19.4254H30.4488C31.1303 19.4254 31.6835 18.8722 31.6835 18.1907C31.6835 17.5091 31.1303 16.9561 30.4488 16.9561Z" fill="#E3E3E3"/>
<path d="M20.5715 21.4253H8.2249C7.54342 21.4253 6.99023 21.9785 6.99023 22.66C6.99023 23.3414 7.54342 23.8946 8.2249 23.8946H20.5715C21.253 23.8946 21.8062 23.3414 21.8062 22.66C21.8062 21.9785 21.253 21.4253 20.5715 21.4253Z" fill="#E3E3E3"/>
<path d="M27.5617 17.9393H27.5418L26.0419 19.0055V18.1302L27.5537 17.0561H28.4329V22.7969H27.5617V17.9393ZM29.7856 18.7389C29.7856 18.2217 29.9712 17.7934 30.3426 17.4539C30.7165 17.1171 31.1886 16.9487 31.7589 16.9487C32.3052 16.9487 32.7601 17.1025 33.1234 17.4102C33.4868 17.7178 33.6685 18.0997 33.6685 18.5559C33.6685 18.8769 33.5743 19.1898 33.386 19.4948C33.2189 19.7654 32.9139 20.1274 32.471 20.5809L31.0348 22.0251V22.045H33.76V22.7969H29.8333V22.1922L31.9061 20.0796C32.2562 19.7136 32.4909 19.4325 32.6102 19.2362C32.7296 19.0373 32.7893 18.8251 32.7893 18.5997C32.7893 18.3451 32.6871 18.1289 32.4829 17.9512C32.2787 17.7735 32.0281 17.6847 31.731 17.6847C31.418 17.6847 31.1555 17.7855 30.9433 17.987C30.7338 18.1859 30.629 18.4353 30.629 18.735V18.7469H29.7856V18.7389ZM35.8009 19.4988H36.4931C36.8008 19.4988 37.0527 19.4113 37.249 19.2362C37.4426 19.0612 37.5394 18.8384 37.5394 18.5679C37.5394 18.2947 37.4506 18.0799 37.2729 17.9234C37.0872 17.7616 36.8273 17.6807 36.4931 17.6807C36.1828 17.6807 35.9308 17.7642 35.7372 17.9313C35.5436 18.0958 35.4335 18.3199 35.407 18.6037H34.5676C34.6021 18.0997 34.7957 17.6979 35.1484 17.3982C35.5038 17.0985 35.9653 16.9487 36.5329 16.9487C37.0793 16.9487 37.5275 17.0879 37.8776 17.3664C38.233 17.6475 38.4107 18.0082 38.4107 18.4485C38.4107 18.8039 38.3033 19.1036 38.0884 19.3476C37.8736 19.589 37.5872 19.7415 37.2291 19.8051V19.8211C37.6641 19.8502 38.0089 19.9895 38.2635 20.2388C38.5208 20.4881 38.6494 20.813 38.6494 21.2135C38.6494 21.7095 38.4478 22.1166 38.0447 22.4348C37.6468 22.7478 37.1456 22.9043 36.5409 22.9043C35.9282 22.9043 35.4322 22.7491 35.0529 22.4388C34.6816 22.1365 34.4814 21.7346 34.4522 21.2334H35.3076C35.3367 21.5119 35.4587 21.7346 35.6736 21.9017C35.8964 22.0741 36.1855 22.1603 36.5409 22.1603C36.891 22.1603 37.1787 22.0702 37.4042 21.8898C37.6296 21.7121 37.7423 21.4827 37.7423 21.2015C37.7423 20.8912 37.6323 20.6459 37.4121 20.4655C37.1946 20.2878 36.8963 20.199 36.517 20.199H35.8009V19.4988Z" fill="#DC3545"/>
<circle cx="32.6679" cy="19.7968" r="5.39642" stroke="#DC3545"/>
</svg>
