<svg width="30" height="28" viewBox="0 0 30 28" fill="none" xmlns="http://www.w3.org/2000/svg">
<rect x="0.960938" width="29" height="28" rx="14" fill="#198754" fill-opacity="0.15"/>
<path d="M16.8487 12.7495H14.0746C13.2471 12.7495 12.5953 12.0982 12.5953 11.3213C12.5953 10.532 13.2562 9.8931 14.0746 9.8931H18.2359C18.9511 9.8931 19.5309 9.33328 19.5309 8.64274C19.5309 7.95221 18.9511 7.39239 18.2359 7.39239H16.7567V5.96423C16.7567 5.27369 16.1769 4.71387 15.4617 4.71387C14.7465 4.71387 14.1667 5.27369 14.1667 5.96423V7.39247H14.0747C11.8274 7.39247 10.0054 9.14714 10.0054 11.3213C10.0054 13.4593 11.7964 15.2503 14.0747 15.2503H16.8488C17.6818 15.2503 18.3281 15.9057 18.3281 16.6785C18.3281 17.4537 17.6781 18.1067 16.8488 18.1067H12.6875C11.9723 18.1067 11.3925 18.6665 11.3925 19.3571C11.3925 20.0476 11.9723 20.6074 12.6875 20.6074H14.1667V22.0357C14.1667 22.7262 14.7465 23.286 15.4617 23.286C16.1769 23.286 16.7567 22.7262 16.7567 22.0357V20.6073H16.8487C19.1319 20.6073 20.918 18.8113 20.918 16.6784C20.918 14.5083 19.1007 12.7495 16.8487 12.7495Z" fill="#198754"/>
</svg>
