<svg width="149" height="44" viewBox="0 0 149 44" fill="none" xmlns="http://www.w3.org/2000/svg">
<path d="M143.375 43.522H6.01866C2.9982 43.522 0.524414 41.1067 0.524414 38.1577V5.97211C0.524414 3.02311 2.9982 0.607848 6.01866 0.607848H143.375C146.395 0.607848 148.869 3.02311 148.869 5.97211V38.1577C148.869 41.1067 146.395 43.522 143.375 43.522Z" fill="black"/>
<path d="M143.375 1.46747C145.919 1.46747 147.989 3.48846 147.989 5.97211V38.1577C147.989 40.6414 145.919 42.6623 143.375 42.6623H6.01866C3.47483 42.6623 1.40487 40.6414 1.40487 38.1577V5.97211C1.40487 3.48846 3.47483 1.46747 6.01866 1.46747H143.375ZM143.375 0.607848H6.01866C2.9982 0.607848 0.524414 3.02311 0.524414 5.97211V38.1577C0.524414 41.1067 2.9982 43.522 6.01866 43.522H143.375C146.395 43.522 148.869 41.1067 148.869 38.1577V5.97211C148.869 3.02311 146.395 0.607848 143.375 0.607848Z" fill="#A6A6A6"/>
<path d="M52.6294 11.598C52.6294 12.4939 52.3547 13.2114 51.8135 13.7464C51.1912 14.3808 50.3808 14.6999 49.3878 14.6999C48.4386 14.6999 47.6282 14.3754 46.9634 13.7357C46.2972 13.0866 45.9648 12.29 45.9648 11.3365C45.9648 10.383 46.2972 9.58645 46.9634 8.94274C47.6282 8.29768 48.4386 7.97314 49.3878 7.97314C49.8603 7.97314 50.3108 8.06836 50.7407 8.24538C51.1693 8.42374 51.5182 8.66513 51.7709 8.96285L51.1967 9.52878C50.7558 9.02052 50.1556 8.76974 49.3878 8.76974C48.6955 8.76974 48.0952 9.00577 47.5856 9.48184C47.0816 9.95926 46.8288 10.5775 46.8288 11.3365C46.8288 12.0956 47.0816 12.7192 47.5856 13.1966C48.0952 13.6673 48.6955 13.9087 49.3878 13.9087C50.1226 13.9087 50.7407 13.6673 51.2283 13.1912C51.5497 12.8761 51.7324 12.4416 51.7805 11.8864H49.3878V11.1112H52.5799C52.6184 11.2789 52.6294 11.4411 52.6294 11.598V11.598Z" fill="white" stroke="white" stroke-width="0.132043" stroke-miterlimit="10"/>
<path d="M57.6931 8.91049H54.6946V10.9489H57.3977V11.724H54.6946V13.7625H57.6931V14.5524H53.8457V8.12061H57.6931V8.91049Z" fill="white" stroke="white" stroke-width="0.132043" stroke-miterlimit="10"/>
<path d="M61.2672 14.5524H60.4183V8.91049H58.5791V8.12061H63.1077V8.91049H61.2672V14.5524V14.5524Z" fill="white" stroke="white" stroke-width="0.132043" stroke-miterlimit="10"/>
<path d="M66.3857 14.5524V8.12061H67.2332V14.5524H66.3857Z" fill="white" stroke="white" stroke-width="0.132043" stroke-miterlimit="10"/>
<path d="M70.9898 14.5524H70.1478V8.91049H68.3018V8.12061H72.8359V8.91049H70.9898V14.5524Z" fill="white" stroke="white" stroke-width="0.132043" stroke-miterlimit="10"/>
<path d="M81.4096 13.725C80.7599 14.3754 79.955 14.6999 78.9948 14.6999C78.0292 14.6999 77.2243 14.3754 76.5746 13.725C75.9263 13.0759 75.6035 12.2793 75.6035 11.3365C75.6035 10.3938 75.9263 9.59718 76.5746 8.9481C77.2243 8.29768 78.0292 7.97314 78.9948 7.97314C79.9495 7.97314 80.7544 8.29768 81.4041 8.95346C82.0579 9.6079 82.3807 10.3991 82.3807 11.3365C82.3807 12.2793 82.0579 13.0759 81.4096 13.725ZM77.2023 13.1859C77.6913 13.6673 78.2861 13.9087 78.9948 13.9087C79.6981 13.9087 80.2984 13.6673 80.7818 13.1859C81.2695 12.7044 81.5167 12.0862 81.5167 11.3365C81.5167 10.5869 81.2695 9.96865 80.7818 9.48721C80.2984 9.00577 79.6981 8.76437 78.9948 8.76437C78.2861 8.76437 77.6913 9.00577 77.2023 9.48721C76.7147 9.96865 76.4675 10.5869 76.4675 11.3365C76.4675 12.0862 76.7147 12.7044 77.2023 13.1859V13.1859Z" fill="white" stroke="white" stroke-width="0.132043" stroke-miterlimit="10"/>
<path d="M83.5713 14.5524V8.12061H84.6015L87.8046 13.1228H87.8417L87.8046 11.8863V8.12061H88.6521V14.5524H87.7675L84.4133 9.30343H84.3762L84.4133 10.5453V14.5524H83.5713V14.5524Z" fill="white" stroke="white" stroke-width="0.132043" stroke-miterlimit="10"/>
<path d="M75.3944 23.9451C72.8135 23.9451 70.7051 25.8628 70.7051 28.5087C70.7051 31.1332 72.8135 33.071 75.3944 33.071C77.9808 33.071 80.0893 31.1332 80.0893 28.5087C80.0893 25.8628 77.9808 23.9451 75.3944 23.9451ZM75.3944 31.274C73.9783 31.274 72.7599 30.1327 72.7599 28.5087C72.7599 26.8632 73.9783 25.7421 75.3944 25.7421C76.8106 25.7421 78.0344 26.8632 78.0344 28.5087C78.0344 30.1327 76.8106 31.274 75.3944 31.274V31.274ZM65.1628 23.9451C62.5763 23.9451 60.4734 25.8628 60.4734 28.5087C60.4734 31.1332 62.5763 33.071 65.1628 33.071C67.7478 33.071 69.8521 31.1332 69.8521 28.5087C69.8521 25.8628 67.7478 23.9451 65.1628 23.9451ZM65.1628 31.274C63.7452 31.274 62.5228 30.1327 62.5228 28.5087C62.5228 26.8632 63.7452 25.7421 65.1628 25.7421C66.5789 25.7421 67.7972 26.8632 67.7972 28.5087C67.7972 30.1327 66.5789 31.274 65.1628 31.274ZM52.9875 25.3438V27.283H57.7304C57.5917 28.3666 57.2208 29.1631 56.6522 29.7183C55.9599 30.3889 54.8816 31.1332 52.9875 31.1332C50.0687 31.1332 47.7831 28.8332 47.7831 25.9835C47.7831 23.1337 50.0687 20.8338 52.9875 20.8338C54.5657 20.8338 55.714 21.4359 56.5615 22.2164L57.9612 20.8499C56.7758 19.7448 55.1989 18.8959 52.9875 18.8959C48.9849 18.8959 45.6211 22.0756 45.6211 25.9835C45.6211 29.8913 48.9849 33.071 52.9875 33.071C55.1509 33.071 56.7758 32.379 58.0532 31.0809C59.3622 29.8028 59.7702 28.0058 59.7702 26.5548C59.7702 26.1042 59.7317 25.6898 59.663 25.3438H52.9875ZM102.774 26.8471C102.388 25.8266 101.197 23.9451 98.7711 23.9451C96.3673 23.9451 94.366 25.7944 94.366 28.5087C94.366 31.0648 96.3467 33.071 99.0018 33.071C101.149 33.071 102.388 31.793 102.897 31.0487L101.304 30.012C100.772 30.7711 100.048 31.274 99.0018 31.274C97.962 31.274 97.2162 30.8086 96.7382 29.8913L102.989 27.3661L102.774 26.8471V26.8471ZM96.4003 28.3666C96.3467 26.6071 97.8 25.7059 98.8411 25.7059C99.657 25.7059 100.349 26.1042 100.58 26.6741L96.4003 28.3666V28.3666ZM91.3195 32.7934H93.3743V19.3828H91.3195V32.7934ZM87.9543 24.9616H87.8856C87.4241 24.4278 86.5436 23.9451 85.4283 23.9451C83.0877 23.9451 80.9477 25.9513 80.9477 28.5235C80.9477 31.0809 83.0877 33.071 85.4283 33.071C86.5436 33.071 87.4241 32.5842 87.8856 32.0344H87.9543V32.6888C87.9543 34.4335 86.9996 35.3709 85.4599 35.3709C84.2044 35.3709 83.4256 34.4858 83.1042 33.7415L81.3172 34.4697C81.8323 35.6794 83.1962 37.168 85.4599 37.168C87.8691 37.168 89.902 35.784 89.902 32.4166V24.2227H87.9543V24.9616V24.9616ZM85.6041 31.274C84.188 31.274 83.0026 30.1166 83.0026 28.5235C83.0026 26.9155 84.188 25.7421 85.6041 25.7421C86.9996 25.7421 88.0999 26.9155 88.0999 28.5235C88.0999 30.1166 86.9996 31.274 85.6041 31.274V31.274ZM112.394 19.3828H107.479V32.7934H109.529V27.7121H112.394C114.67 27.7121 116.902 26.1042 116.902 23.5468C116.902 20.9907 114.665 19.3828 112.394 19.3828V19.3828ZM112.448 25.8467H109.529V21.2482H112.448C113.978 21.2482 114.851 22.4887 114.851 23.5468C114.851 24.5847 113.978 25.8467 112.448 25.8467ZM125.116 23.9196C123.635 23.9196 122.096 24.5579 121.462 25.9727L123.281 26.717C123.672 25.9727 124.392 25.7314 125.153 25.7314C126.216 25.7314 127.294 26.355 127.311 27.456V27.5968C126.94 27.3876 126.146 27.0778 125.17 27.0778C123.211 27.0778 121.215 28.1305 121.215 30.0952C121.215 31.8922 122.819 33.0496 124.623 33.0496C126.002 33.0496 126.763 32.4421 127.241 31.7353H127.311V32.772H129.29V27.6276C129.29 25.2499 127.472 23.9196 125.116 23.9196ZM124.869 31.2686C124.198 31.2686 123.264 30.9441 123.264 30.1327C123.264 29.0948 124.429 28.6965 125.437 28.6965C126.34 28.6965 126.763 28.8909 127.311 29.1471C127.15 30.3889 126.055 31.2686 124.869 31.2686V31.2686ZM136.501 24.2133L134.146 30.0268H134.076L131.64 24.2133H129.43L133.089 32.3374L131.002 36.8582H133.143L138.782 24.2133H136.501V24.2133ZM118.028 32.7934H120.083V19.3828H118.028V32.7934Z" fill="white"/>
<path d="M11.991 8.69575C11.6682 9.02565 11.4814 9.53928 11.4814 10.2045V33.9306C11.4814 34.5958 11.6682 35.1094 11.991 35.4393L12.0707 35.5117L25.6882 22.2218V21.9079L12.0707 8.61797L11.991 8.69575Z" fill="url(#paint0_linear_1624_64811)"/>
<path d="M30.2226 26.6538L25.6885 22.2216V21.9078L30.2281 17.4755L30.3297 17.5332L35.7059 20.5198C37.2401 21.3673 37.2401 22.762 35.7059 23.615L30.3297 26.5961L30.2226 26.6538V26.6538Z" fill="url(#paint1_linear_1624_64811)"/>
<path d="M30.3296 26.5966L25.6884 22.0651L11.9912 35.4395C12.5008 35.9626 13.3318 36.0256 14.2768 35.5026L30.3296 26.5966" fill="url(#paint2_linear_1624_64811)"/>
<path d="M30.3296 17.5335L14.2768 8.62746C13.3318 8.10981 12.5008 8.17284 11.9912 8.69585L25.6884 22.0649L30.3296 17.5335Z" fill="url(#paint3_linear_1624_64811)"/>
<defs>
<linearGradient id="paint0_linear_1624_64811" x1="24.4791" y1="34.1777" x2="6.47923" y2="15.7416" gradientUnits="userSpaceOnUse">
<stop stop-color="#00A0FF"/>
<stop offset="0.0066" stop-color="#00A1FF"/>
<stop offset="0.2601" stop-color="#00BEFF"/>
<stop offset="0.5122" stop-color="#00D2FF"/>
<stop offset="0.7604" stop-color="#00DFFF"/>
<stop offset="1" stop-color="#00E3FF"/>
</linearGradient>
<linearGradient id="paint1_linear_1624_64811" x1="37.7037" y1="22.0632" x2="11.115" y2="22.0632" gradientUnits="userSpaceOnUse">
<stop stop-color="#FFE000"/>
<stop offset="0.4087" stop-color="#FFBD00"/>
<stop offset="0.7754" stop-color="#FFA500"/>
<stop offset="1" stop-color="#FF9C00"/>
</linearGradient>
<linearGradient id="paint2_linear_1624_64811" x1="27.8059" y1="19.6017" x2="3.39654" y2="-5.39907" gradientUnits="userSpaceOnUse">
<stop stop-color="#FF3A44"/>
<stop offset="1" stop-color="#C31162"/>
</linearGradient>
<linearGradient id="paint3_linear_1624_64811" x1="8.54335" y1="43.333" x2="19.4432" y2="32.1691" gradientUnits="userSpaceOnUse">
<stop stop-color="#32A071"/>
<stop offset="0.0685" stop-color="#2DA771"/>
<stop offset="0.4762" stop-color="#15CF74"/>
<stop offset="0.8009" stop-color="#06E775"/>
<stop offset="1" stop-color="#00F076"/>
</linearGradient>
</defs>
</svg>
