<svg width="18" height="24" viewBox="0 0 18 24" fill="none" xmlns="http://www.w3.org/2000/svg">
<path d="M15.6522 9.03993H14.9423V6.20045C14.9423 3.0685 12.3953 0.521484 9.26332 0.521484C6.13137 0.521484 3.58435 3.0685 3.58435 6.20045V9.03993H2.87448C1.70083 9.03993 0.744873 9.99494 0.744873 11.1695V21.1077C0.744873 22.2823 1.70083 23.2373 2.87448 23.2373H15.6522C16.8258 23.2373 17.7818 22.2823 17.7818 21.1077V11.1695C17.7818 9.99494 16.8258 9.03993 15.6522 9.03993ZM5.47734 6.20045C5.47734 4.11248 7.17535 2.41447 9.26332 2.41447C11.3513 2.41447 13.0493 4.11248 13.0493 6.20045V9.03993H5.47734V6.20045ZM10.2098 16.3488V18.5049C10.2098 19.0273 9.78673 19.4514 9.26332 19.4514C8.73991 19.4514 8.31682 19.0273 8.31682 18.5049V16.3488C7.75366 16.0203 7.37033 15.4165 7.37033 14.7189C7.37033 13.6749 8.21933 12.8259 9.26332 12.8259C10.3073 12.8259 11.1563 13.6749 11.1563 14.7189C11.1563 15.4165 10.773 16.0203 10.2098 16.3488Z" fill="#38383C"/>
</svg>
