<svg width="108" height="30" viewBox="0 0 108 30" fill="none" xmlns="http://www.w3.org/2000/svg">
<path fill-rule="evenodd" clip-rule="evenodd" d="M5.06947 0.228027H102.984C105.352 0.228027 107.272 2.14772 107.272 4.51624V25.2426C107.272 27.6111 105.352 29.5308 102.984 29.5308H5.06947C2.70094 29.5308 0.78125 27.6111 0.78125 25.2426V4.51624C0.78125 2.14772 2.70094 0.228027 5.06947 0.228027Z" fill="#32364E"/>
<path fill-rule="evenodd" clip-rule="evenodd" d="M51.8144 19.2571H50.7695L51.5785 17.2588L49.9683 13.1957H51.0725L52.0845 15.9609L53.1044 13.1957H54.2086L51.8144 19.2571ZM47.8013 17.5118C47.439 17.5118 47.068 17.3774 46.7307 17.1158V17.411H45.6522V11.3496H46.7307V13.483C47.068 13.23 47.439 13.0949 47.8013 13.0949C48.9313 13.0949 49.7067 14.0054 49.7067 15.3033C49.7067 16.6012 48.9313 17.5118 47.8013 17.5118V17.5118ZM47.5741 14.0219C47.2789 14.0219 46.9837 14.1484 46.7307 14.4014V16.2053C46.9837 16.4583 47.2789 16.5848 47.5741 16.5848C48.1808 16.5848 48.6025 16.0623 48.6025 15.3033C48.6025 14.545 48.1808 14.0219 47.5741 14.0219ZM41.2847 17.1158C40.9559 17.3774 40.585 17.5118 40.214 17.5118C39.0927 17.5118 38.3094 16.6012 38.3094 15.3033C38.3094 14.0054 39.0927 13.0949 40.214 13.0949C40.585 13.0949 40.9559 13.23 41.2847 13.483V11.3496H42.3725V17.411H41.2847V17.1158ZM41.2847 14.4014C41.0402 14.1484 40.7451 14.0219 40.4499 14.0219C39.8345 14.0219 39.4136 14.545 39.4136 15.3033C39.4136 16.0623 39.8345 16.5848 40.4499 16.5848C40.7451 16.5848 41.0402 16.4583 41.2847 16.2053V14.4014ZM34.8609 15.5985C34.9281 16.2389 35.4341 16.6777 36.1424 16.6777C36.5298 16.6777 36.96 16.5341 37.3981 16.281V17.183C36.9178 17.4024 36.4376 17.5118 35.9651 17.5118C34.6923 17.5118 33.7989 16.5848 33.7989 15.2697C33.7989 13.9969 34.6758 13.0949 35.8808 13.0949C36.985 13.0949 37.7355 13.9633 37.7355 15.2026C37.7355 15.3205 37.7355 15.4549 37.7183 15.5985H34.8609ZM35.8386 13.9297C35.3162 13.9297 34.9117 14.317 34.8609 14.8988H36.6984C36.6648 14.3256 36.3189 13.9297 35.8386 13.9297V13.9297ZM32.02 14.5951V17.411H30.9408V13.1957H32.02V13.6173C32.323 13.28 32.6939 13.0949 33.0563 13.0949C33.1749 13.0949 33.2929 13.1035 33.4108 13.1371V14.0983C33.2929 14.064 33.1578 14.0476 33.0313 14.0476C32.6775 14.0476 32.298 14.2413 32.02 14.5951V14.5951ZM27.2057 15.5985C27.2736 16.2389 27.7789 16.6777 28.4872 16.6777C28.8753 16.6777 29.3048 16.5341 29.7437 16.281V17.183C29.2627 17.4024 28.7824 17.5118 28.31 17.5118C27.0371 17.5118 26.1437 16.5848 26.1437 15.2697C26.1437 13.9969 27.0206 13.0949 28.2256 13.0949C29.3306 13.0949 30.0803 13.9633 30.0803 15.2026C30.0803 15.3205 30.0803 15.4549 30.0638 15.5985H27.2057ZM28.1835 13.9297C27.661 13.9297 27.2565 14.317 27.2057 14.8988H29.044C29.0097 14.3256 28.6645 13.9297 28.1835 13.9297ZM23.4371 17.411L22.5773 14.545L21.7261 17.411H20.7563L19.3068 13.1957H20.3853L21.2373 16.0623L22.0885 13.1957H23.0662L23.9174 16.0623L24.7693 13.1957H25.8478L24.4063 17.411H23.4371ZM16.8447 17.5118C15.5718 17.5118 14.6699 16.5934 14.6699 15.3033C14.6699 14.0054 15.5718 13.0949 16.8447 13.0949C18.1176 13.0949 19.011 14.0054 19.011 15.3033C19.011 16.5934 18.1176 17.5118 16.8447 17.5118ZM16.8447 13.9969C16.2122 13.9969 15.7741 14.5279 15.7741 15.3033C15.7741 16.0788 16.2122 16.6098 16.8447 16.6098C17.4686 16.6098 17.9067 16.0788 17.9067 15.3033C17.9067 14.5279 17.4686 13.9969 16.8447 13.9969ZM12.1069 15.3291H11.1371V17.411H10.0586V11.6112H12.1069C13.2869 11.6112 14.1295 12.3781 14.1295 13.4744C14.1295 14.57 13.2869 15.3291 12.1069 15.3291ZM11.9547 12.4881H11.1371V14.4521H11.9547C12.5786 14.4521 13.0167 14.0562 13.0167 13.4744C13.0167 12.8841 12.5786 12.4881 11.9547 12.4881V12.4881ZM98.5731 15.8572H93.3915C93.5094 17.098 94.4185 17.4632 95.4499 17.4632C96.5012 17.4632 97.3288 17.2423 98.0506 16.8778V19.0105C97.3309 19.4086 96.3818 19.6966 95.1161 19.6966C92.5382 19.6966 90.7314 18.0821 90.7314 14.8895C90.7314 12.1937 92.2637 10.0524 94.7823 10.0524C97.2966 10.0524 98.6088 12.1929 98.6088 14.9038C98.6088 15.1597 98.5852 15.7143 98.5731 15.8572ZM94.7652 12.2108C94.1033 12.2108 93.3679 12.7104 93.3679 13.9032H96.1045C96.1045 12.7118 95.4155 12.2108 94.7652 12.2108ZM86.5332 19.6966C85.607 19.6966 85.0409 19.3057 84.6607 19.0269L84.655 22.0223L82.0084 22.5854L82.007 10.2289H84.3384L84.4756 10.8829C84.8422 10.5406 85.5119 10.0524 86.5497 10.0524C88.4086 10.0524 90.1596 11.727 90.1596 14.8088C90.1596 18.1729 88.4272 19.6966 86.5332 19.6966V19.6966ZM85.9171 12.3974C85.3089 12.3974 84.9287 12.6196 84.6528 12.9219L84.6686 16.8557C84.9251 17.1337 85.2961 17.3581 85.9171 17.3581C86.8956 17.3581 87.5517 16.2925 87.5517 14.8674C87.5517 13.4823 86.8856 12.3974 85.9171 12.3974ZM78.2684 10.2289H80.9257V19.5072H78.2684V10.2289ZM78.2684 7.2665L80.9257 6.70117V8.85743L78.2684 9.42205V7.2665ZM75.5232 13.2171V19.5072H72.8774V10.2289H75.1659L75.3324 11.0115C75.9513 9.87231 77.1892 10.1032 77.5415 10.2297V12.6625C77.2049 12.5539 76.1486 12.3952 75.5232 13.2171ZM69.9364 16.2517C69.9364 17.8119 71.6067 17.3267 71.9461 17.1909V19.3457C71.5931 19.5394 70.9534 19.6966 70.0879 19.6966C68.517 19.6966 67.3385 18.5395 67.3385 16.9722L67.3499 8.47935L69.9342 7.93046L69.9364 10.2289H71.9469V12.486H69.9364V16.2517ZM66.7245 16.7034C66.7245 18.6088 65.2079 19.6966 63.0066 19.6966C62.094 19.6966 61.0962 19.5194 60.1121 19.0955V16.5684C61.0005 17.0515 62.1326 17.4139 63.0095 17.4139C63.5998 17.4139 64.0251 17.2552 64.0251 16.7663C64.0251 15.5027 60.0006 15.9787 60.0006 13.0477C60.0006 11.1738 61.4321 10.0524 63.5791 10.0524C64.456 10.0524 65.333 10.1875 66.2099 10.537V13.0299C65.4045 12.5953 64.3824 12.3488 63.577 12.3488C63.0224 12.3488 62.6779 12.5088 62.6779 12.9227C62.6779 14.1134 66.7245 13.5473 66.7245 16.7034V16.7034Z" fill="white"/>
</svg>
