<svg width="52" height="53" viewBox="0 0 52 53" fill="none" xmlns="http://www.w3.org/2000/svg">
<path d="M24.3873 2.7121C25.274 3.30108 26.7255 3.30108 27.6109 2.7121L29.9534 1.15547C30.8401 0.566495 32.0321 0.820597 32.6015 1.72016L34.1083 4.09595C34.6791 4.99478 36.004 5.5845 37.0536 5.40694L39.827 4.93719C40.8767 4.75963 41.8631 5.47575 42.018 6.52841L42.4289 9.30605C42.5845 10.3593 43.5546 11.4393 44.5859 11.705L47.307 12.4064C48.3385 12.6727 48.9474 13.7301 48.6618 14.7542L47.9069 17.4546C47.6206 18.4806 48.0697 19.8607 48.903 20.522L51.1123 22.2755C51.9456 22.9368 52.0726 24.1488 51.3936 24.9693L49.6013 27.1347C48.9224 27.9552 48.7704 29.3976 49.2628 30.3409L50.5664 32.831C51.0593 33.7749 50.6825 34.9339 49.7294 35.4073L47.2101 36.6576C46.2571 37.131 45.5313 38.3879 45.5982 39.4503L45.7714 42.2546C45.8389 43.3165 45.0225 44.2227 43.959 44.2683L41.1516 44.3873C40.0879 44.4322 38.9138 45.2862 38.5423 46.2842L37.5656 48.9159C37.1943 49.9145 36.0808 50.4105 35.0907 50.0184L32.4742 48.9845C31.4854 48.5919 30.0655 48.8946 29.321 49.6548L27.3554 51.6617C26.6109 52.422 25.3923 52.422 24.6465 51.663L22.6785 49.6543C21.9328 48.8946 20.5141 48.5924 19.5248 48.9845L16.9094 50.0184C15.9193 50.4105 14.8065 49.9139 14.4357 48.9159L13.4567 46.2842C13.0859 45.2856 11.9122 44.4322 10.8487 44.3873L8.04125 44.2683C6.97756 44.2227 6.16189 43.3165 6.22887 42.2546L6.40459 39.4503C6.47027 38.3879 5.74458 37.1316 4.79147 36.6576L2.27272 35.4073C1.31979 34.9339 0.942965 33.7741 1.43571 32.831L2.73879 30.3409C3.23172 29.397 3.07974 27.9548 2.40023 27.136L0.606063 24.9687C-0.0721544 24.1494 0.054804 22.9376 0.888132 22.2763L3.0974 20.5228C3.93128 19.8615 4.37932 18.4824 4.09357 17.4564L3.33862 14.7548C3.05177 13.7288 3.66135 12.6725 4.69211 12.4081L7.41492 11.7043C8.44513 11.4393 9.41646 10.3598 9.57193 9.3066L9.9828 6.52896C10.1385 5.4763 11.1241 4.76037 12.1733 4.93774L14.9467 5.40749C15.9964 5.58505 17.3214 4.99478 17.8909 4.0965L19.3976 1.72072C19.9666 0.821884 21.1583 0.567783 22.0457 1.15603L24.3873 2.7121Z" fill="#198754"/>
<path d="M42.7136 26.5644C42.7136 35.7954 35.2298 43.2791 25.9994 43.2791C16.7689 43.2791 9.28516 35.7954 9.28516 26.5644C9.28516 17.3358 16.7689 9.85254 25.9994 9.85254C35.2304 9.85272 42.7136 17.3358 42.7136 26.5644Z" fill="#239A63"/>
<path d="M23.2115 34.3723L16.5215 27.6812L18.7503 25.4517L23.2115 29.9123L33.2466 19.876L35.4759 22.1064L23.2115 34.3723Z" fill="white"/>
</svg>
